HIERARCHY
ROOT Hips
{
	OFFSET -3.958830 18.904000 13.208200
	CHANNELS 6 Xposition Yposition Zposition Zrotation Yrotation Xrotation 
	JOINT LHipJoint
	{
		OFFSET 0.000000 0.000000 0.000000
		CHANNELS 3 Zrotation Yrotation Xrotation
		JOINT LeftUpLeg
		{
			OFFSET 1.800000 -1.400000 0.085000
			CHANNELS 3 Zrotation Yrotation Xrotation
			JOINT LeftLeg
			{
				OFFSET 2.215000 -6.000000 0.000000
				CHANNELS 3 Zrotation Yrotation Xrotation
				JOINT LeftFoot
				{
					OFFSET 2.500000 -6.900000 0.000000
					CHANNELS 3 Zrotation Yrotation Xrotation
					JOINT LeftToeBase
					{
						OFFSET 0.200000 -0.500000 1.950000
						CHANNELS 3 Zrotation Yrotation Xrotation
						End Site
						{
							OFFSET 0.000000 0.000000 0.000000
						}
					}
				}
			}
		}
	}
	JOINT RHipJoint
	{
		OFFSET 0.000000 0.000000 0.000000
		CHANNELS 3 Zrotation Yrotation Xrotation
		JOINT RightUpLeg
		{
			OFFSET -1.800000 -1.400000 0.085000
			CHANNELS 3 Zrotation Yrotation Xrotation
			JOINT RightLeg
			{
				OFFSET -2.215000 -6.000000 0.000000
				CHANNELS 3 Zrotation Yrotation Xrotation
				JOINT RightFoot
				{
					OFFSET -2.500000 -6.900000 0.000000
					CHANNELS 3 Zrotation Yrotation Xrotation
					JOINT RightToeBase
					{
						OFFSET -0.200000 -0.500000 1.950000
						CHANNELS 3 Zrotation Yrotation Xrotation
						End Site
						{
							OFFSET 0.000000 0.000000 0.000000
						}
					}
				}
			}
		}
	}
	JOINT LowerBack
	{
		OFFSET 0.000000 0.000000 0.000000
		CHANNELS 3 Zrotation Yrotation Xrotation
		JOINT Spine
		{
			OFFSET -0.087000 1.940000 -0.288900
			CHANNELS 3 Zrotation Yrotation Xrotation
			JOINT Spine1
			{
				OFFSET 0.000000 1.950000 0.060000
				CHANNELS 3 Zrotation Yrotation Xrotation
				JOINT Neck
				{
					OFFSET 0.000000 0.000000 0.000000
					CHANNELS 3 Zrotation Yrotation Xrotation
					JOINT Neck1
					{
						OFFSET 0.000000 1.600000 0.340000
						CHANNELS 3 Zrotation Yrotation Xrotation
						JOINT Head
						{
							OFFSET 0.000000 1.667000 -0.240000
							CHANNELS 3 Zrotation Yrotation Xrotation
							End Site
							{
								OFFSET 0.000000 0.000000 0.000000
							}
						}
					}
				}
				JOINT LeftShoulder
				{
					OFFSET 0.000000 0.000000 0.000000
					CHANNELS 3 Zrotation Yrotation Xrotation
					JOINT LeftArm
					{
						OFFSET 2.700000 1.550000 -0.730000
						CHANNELS 3 Zrotation Yrotation Xrotation
						JOINT LeftForeArm
						{
							OFFSET 5.450000 0.000000 0.000000
							CHANNELS 3 Zrotation Yrotation Xrotation
							JOINT LeftHand
							{
								OFFSET 3.450000 0.000000 0.000000
								CHANNELS 3 Zrotation Yrotation Xrotation
								JOINT LeftHandIndex1
								{
									OFFSET 0.750000 0.000000 0.000000
									CHANNELS 3 Zrotation Yrotation Xrotation
									End Site
									{
										OFFSET 0.000000 0.000000 0.000000
									}
								}
							}
						}
					}
				}
				JOINT RightShoulder
				{
					OFFSET 0.000000 0.000000 0.000000
					CHANNELS 3 Zrotation Yrotation Xrotation
					JOINT RightArm
					{
						OFFSET -2.700000 1.550000 -0.730000
						CHANNELS 3 Zrotation Yrotation Xrotation
						JOINT RightForeArm
						{
							OFFSET -5.450000 0.000000 0.000000
							CHANNELS 3 Zrotation Yrotation Xrotation
							JOINT RightHand
							{
								OFFSET -3.450000 0.000000 0.000000
								CHANNELS 3 Zrotation Yrotation Xrotation
								JOINT RightHandIndex1
								{
									OFFSET -0.750000 0.000000 0.000000
									CHANNELS 3 Zrotation Yrotation Xrotation
									End Site
									{
										OFFSET 0.000000 0.000000 0.000000
									}
								}
							}
						}
					}
				}
			}
		}
	}
}
MOTION
Frames: 8
Frame Time: 0.016667
0.479410 17.336020 -7.180880 25.163877 -42.348883 -29.446804 -15.532987 11.211820 6.608578 22.445228 7.181732 -56.491510 -2.788877 22.159245 62.425074 1.249402 12.708062 -0.018282 0.714810 0.661260 0.515200 18.330302 -10.028621 0.825314 -26.887618 4.732408 -7.457664 3.493066 -6.376627 27.977688 -0.586440 -4.930433 2.436013 0.237970 -0.308370 0.173580 -3.013466 -1.523042 -8.969945 -2.140333 6.619065 62.903719 -0.409322 6.259732 3.782198 -1.952437 -15.025533 -9.561107 -28.556908 18.944618 37.889982 -10.174650 1.123320 -25.630180 -17.417364 0.422720 3.917220 -33.135001 23.937215 -12.753701 -31.454750 6.033707 -7.692886 -3.180842 2.854422 0.483300 -0.343920 0.410680 0.147090 20.097072 21.569934 3.681171 45.877234 35.712232 11.534683 -156.424213 35.096784 -131.773603 2.087632 -1.821009 0.205300 0.140950 -0.246430 -0.023050 
0.508050 17.361010 -7.138720 24.793227 -42.564929 -29.105085 -15.486770 11.488343 6.355275 20.538797 5.935629 -55.245893 -1.120418 21.936763 65.479719 1.350925 12.940054 -0.078676 0.722790 0.666620 0.533900 18.311242 -10.162341 0.885548 -26.527390 4.709416 -8.308065 2.958915 -6.235357 28.838549 -0.593363 -4.897773 2.444204 0.228440 -0.335070 0.182870 -2.987792 -1.627362 -8.864302 -1.663704 6.710520 62.573289 -0.655514 6.677217 4.357026 -1.315273 -14.370849 -9.852033 -27.407502 18.308481 39.239812 -10.756090 1.031920 -26.107850 -17.409026 -0.149162 3.888346 -32.634067 23.285872 -12.692095 -32.621720 5.070091 -7.601279 -3.160342 2.873340 0.501150 -0.357070 0.434850 0.141280 18.854632 21.624788 4.054000 45.793521 34.690384 9.767095 -155.947799 34.793503 -132.151751 2.114313 -1.791482 0.217730 0.130330 -0.251990 -0.031230 
0.573950 17.420010 -7.071970 23.872383 -43.955407 -27.890483 -15.371794 11.730438 6.087007 17.464721 4.203645 -54.233325 0.821556 21.370108 68.669302 1.441947 13.193581 -0.130028 0.729910 0.677790 0.526230 18.332856 -10.443672 1.013129 -24.976076 4.917757 -10.687323 1.528898 -5.652515 30.521106 -0.576003 -4.772258 2.482155 0.241080 -0.324270 0.187710 -3.211157 -1.319252 -8.651257 0.562728 5.551699 62.172534 -1.953442 6.187892 4.874773 -1.188203 -14.697342 -9.737939 -28.785691 18.456353 38.052609 -10.349430 0.062030 -27.132560 -18.268181 -0.276523 3.837460 -31.584991 22.793588 -12.448225 -34.897604 0.821095 -6.556713 -3.107867 2.957842 0.503120 -0.359550 0.433600 0.143120 19.367485 21.241255 3.826280 44.891981 34.657359 8.410768 -155.214221 38.228647 -135.292139 2.124760 -1.780006 0.217640 0.147790 -0.241490 -0.022680 
0.654700 17.464700 -6.984080 21.879290 -45.399954 -25.180016 -15.237513 11.989970 5.699599 13.629169 2.191659 -52.440658 3.723475 19.548718 70.922427 1.422925 13.185013 -0.123594 0.733010 0.656630 0.544470 18.354440 -10.748355 1.324594 -22.780079 5.497185 -14.514559 0.458286 -5.157378 33.251218 -0.558950 -4.776781 2.456355 0.257060 -0.322730 0.201610 -3.592137 -0.780282 -8.406036 4.252613 3.718250 60.822551 -3.814737 5.719193 5.188703 -1.070177 -14.547145 -9.546425 -29.021557 18.170869 37.189818 -10.885740 -0.460470 -26.505630 -18.218676 -0.611224 3.460115 -28.125520 20.457736 -11.226504 -40.437347 1.024261 -7.247159 -3.124019 3.044359 0.510360 -0.337500 0.411370 0.121430 19.019084 20.327000 3.759969 45.382357 33.968398 7.618905 -155.506804 39.954607 -138.436788 2.110236 -1.800950 0.196620 0.135860 -0.222600 -0.051570 
0.733460 17.493990 -6.893460 18.044749 -46.149126 -21.150845 -15.149362 12.214435 5.280150 10.295445 0.389448 -49.870933 6.583316 16.814037 71.461715 1.360973 12.817190 -0.006541 0.722870 0.638930 0.560640 18.367765 -10.845903 1.779022 -19.734004 6.692558 -18.522629 0.388541 -5.109306 37.328588 -0.608532 -5.042329 2.357987 0.254130 -0.331840 0.192080 -3.940373 -0.459877 -8.226240 8.152399 0.981330 59.810530 -5.452051 4.515864 4.605955 -0.696254 -14.584818 -9.590423 -29.388303 18.573847 36.130376 -11.911340 -0.421190 -26.528280 -17.918038 -0.795664 3.461899 -27.480974 19.812713 -11.200486 -44.144153 -0.906098 -6.900416 -3.130638 3.088529 0.511790 -0.336650 0.405060 0.102290 18.136220 19.232011 3.592308 46.908790 33.130790 6.572290 -155.865369 41.856557 -141.821661 2.134434 -1.788342 0.184810 0.141700 -0.212400 -0.067470 
0.804890 17.500700 -6.823230 14.361130 -46.308610 -16.995937 -15.113961 12.337318 4.912859 6.900759 -1.226257 -47.692630 8.999391 13.850313 70.456144 1.226525 12.253420 0.167475 0.702940 0.601310 0.548820 18.380551 -10.739401 2.281035 -16.925708 8.199389 -22.363350 0.605035 -5.292276 41.478471 -0.699969 -5.464616 2.205117 0.248460 -0.321960 0.188480 -4.179374 -0.398584 -8.136179 10.995987 -1.182771 58.714016 -6.237299 3.480334 4.285006 -0.467203 -14.659143 -10.199070 -30.262692 19.330656 35.089812 -11.847830 -0.364230 -26.373010 -17.035096 -1.821119 4.121219 -28.973281 19.897588 -11.951851 -46.700599 -3.577872 -6.178882 -3.152385 3.110751 0.539130 -0.338420 0.396650 0.094310 17.110727 19.185098 3.830141 47.720645 31.862031 4.657563 -156.105831 43.356148 -144.963486 2.156413 -1.762945 0.155210 0.152850 -0.191050 -0.080200 
0.862320 17.476120 -6.771470 11.504222 -45.700894 -12.690476 -15.110069 12.368701 4.623315 3.037528 -2.897332 -45.859341 11.318812 10.598855 67.751658 1.090934 11.392897 0.447131 0.697840 0.590900 0.554220 18.396048 -10.504590 2.787653 -14.936534 9.477405 -26.126303 1.776494 -5.944120 44.418578 -0.793449 -5.872165 2.066136 0.234980 -0.317720 0.199840 -4.301228 -0.521322 -8.124553 12.397814 -2.506029 56.672792 -6.206255 2.426657 3.723902 -0.522553 -14.485930 -10.362000 -30.299896 19.701218 34.271296 -12.243460 0.481590 -25.621760 -17.121067 -2.445602 4.465880 -29.461507 19.461361 -12.078998 -49.593158 -5.678847 -5.384739 -3.169994 3.179386 0.525680 -0.327380 0.395620 0.098020 17.521507 18.728467 3.874346 49.034072 30.497420 2.971966 -155.920120 46.701881 -147.838148 2.192754 -1.773596 0.163500 0.134470 -0.199390 -0.078470 
0.902970 17.408100 -6.718020 8.332613 -44.396601 -7.681679 -15.137639 12.222942 4.443351 -0.447387 -4.487714 -44.613625 13.783878 7.354983 64.611333 0.968511 10.501851 0.744250 0.672890 0.571730 0.537990 18.430485 -10.101080 3.317595 -13.729957 10.788846 -30.010738 5.027223 -7.743733 46.694312 -0.901054 -6.429746 1.890487 0.216390 -0.311640 0.188240 -4.394869 -0.711707 -8.213054 13.591303 -3.913357 53.706729 -5.787244 1.110378 3.364340 -0.625948 -14.482732 -10.649144 -30.457515 19.645599 32.661034 -12.585350 1.444220 -24.802330 -16.733706 -2.939696 5.158013 -31.439282 19.996565 -12.725274 -50.954326 -9.530314 -3.576235 -3.178015 3.237274 0.498080 -0.315480 0.377120 0.096400 17.620957 18.239395 3.872920 50.515440 29.230911 1.114286 -156.978326 52.110949 -154.115938 2.228162 -1.794544 0.164570 0.115140 -0.203580 -0.075770 
